<svg xmlns="http://www.w3.org/2000/svg" xmlns:xlink="http://www.w3.org/1999/xlink" width="500" zoomAndPan="magnify" viewBox="0 0 375 374.999991" height="500" preserveAspectRatio="xMidYMid meet" version="1.0"><defs><g/><clipPath id="57c29a3cdd"><path d="M 113.410156 87.175781 L 261.910156 87.175781 L 261.910156 202.675781 L 113.410156 202.675781 Z M 113.410156 87.175781 " clip-rule="nonzero"/></clipPath></defs><path fill="#4c3d3d" d="M 187.507812 123.207031 C 189.898438 123.207031 192.199219 123.589844 194.351562 124.300781 C 190.984375 125.992188 188.671875 129.472656 188.671875 133.488281 C 188.671875 139.164062 193.289062 143.769531 198.984375 143.769531 C 203.011719 143.769531 206.5 141.464844 208.195312 138.105469 C 208.90625 140.25 209.296875 142.542969 209.296875 144.925781 C 209.296875 156.921875 199.539062 166.648438 187.511719 166.648438 C 175.484375 166.648438 165.730469 156.921875 165.730469 144.925781 C 165.730469 132.933594 175.484375 123.207031 187.511719 123.207031 Z M 187.507812 123.207031 " fill-opacity="1" fill-rule="evenodd"/><g clip-path="url(#57c29a3cdd)"><path fill="#ffd95a" d="M 174.011719 110.277344 Z M 195.886719 194.976562 L 179.4375 194.976562 C 177.316406 194.976562 175.578125 196.710938 175.578125 198.828125 C 175.578125 200.945312 177.316406 202.679688 179.4375 202.679688 L 195.886719 202.679688 C 198.011719 202.679688 199.75 200.945312 199.75 198.828125 C 199.75 196.710938 198.011719 194.976562 195.886719 194.976562 Z M 195.886719 87.175781 L 179.4375 87.175781 C 177.316406 87.175781 175.578125 88.910156 175.578125 91.027344 C 175.578125 93.144531 177.316406 94.878906 179.4375 94.878906 L 195.886719 94.878906 C 198.011719 94.878906 199.75 93.148438 199.75 91.027344 C 199.75 88.910156 198.011719 87.175781 195.886719 87.175781 Z M 156.296875 126.5 Z M 157.519531 128.140625 Z M 139.015625 125.675781 L 154.035156 125.675781 L 154.105469 125.679688 L 154.132812 125.683594 L 154.199219 125.6875 L 154.222656 125.691406 L 154.308594 125.699219 L 154.316406 125.699219 L 154.398438 125.707031 L 154.425781 125.710938 L 154.488281 125.71875 L 154.515625 125.722656 L 154.59375 125.734375 L 154.601562 125.734375 L 154.691406 125.75 L 154.714844 125.757812 L 154.777344 125.769531 L 154.800781 125.777344 L 154.871094 125.792969 L 154.886719 125.792969 L 154.972656 125.816406 L 154.992188 125.820312 L 155.054688 125.839844 L 155.082031 125.847656 L 155.136719 125.867188 L 155.164062 125.875 L 155.242188 125.902344 L 155.25 125.90625 L 155.320312 125.933594 L 155.34375 125.941406 L 155.398438 125.964844 L 155.421875 125.976562 L 155.496094 126.011719 L 155.5 126.011719 L 155.574219 126.046875 L 155.597656 126.058594 L 155.65625 126.085938 L 155.675781 126.097656 L 155.753906 126.136719 L 155.828125 126.179688 L 155.84375 126.1875 L 155.921875 126.234375 L 155.980469 126.273438 L 155.996094 126.28125 L 156.078125 126.335938 L 156.136719 126.378906 L 156.15625 126.394531 L 156.210938 126.433594 L 156.226562 126.445312 L 156.296875 126.496094 L 156.363281 126.550781 L 156.382812 126.566406 L 156.429688 126.605469 L 156.449219 126.625 L 156.503906 126.671875 L 156.511719 126.679688 L 156.574219 126.738281 L 156.589844 126.75 L 156.636719 126.792969 L 156.65625 126.8125 L 156.699219 126.859375 L 156.710938 126.875 L 156.769531 126.9375 L 156.78125 126.949219 L 156.824219 127 L 156.84375 127.019531 L 156.882812 127.070312 L 156.898438 127.082031 L 156.953125 127.152344 L 156.957031 127.15625 L 157.003906 127.21875 L 157.019531 127.238281 L 157.054688 127.285156 L 157.074219 127.308594 L 157.117188 127.371094 L 157.121094 127.375 L 157.167969 127.445312 L 157.179688 127.460938 L 157.214844 127.519531 L 157.230469 127.542969 L 157.265625 127.601562 L 157.273438 127.613281 L 157.3125 127.6875 L 157.324219 127.707031 L 157.355469 127.765625 L 157.367188 127.789062 L 157.394531 127.847656 L 157.402344 127.867188 L 157.4375 127.941406 L 157.445312 127.953125 L 157.476562 128.019531 L 157.484375 128.039062 L 157.511719 128.101562 L 157.519531 128.121094 L 157.523438 128.136719 C 157.550781 128.210938 157.578125 128.28125 157.601562 128.355469 C 157.71875 128.722656 157.785156 129.117188 157.785156 129.523438 C 157.785156 131.640625 156.046875 133.375 153.925781 133.375 L 117.375 133.375 C 115.253906 133.375 113.515625 135.109375 113.515625 137.226562 C 113.515625 139.34375 115.253906 141.078125 117.375 141.078125 L 145.769531 141.078125 L 145.765625 141.085938 C 145.863281 141.09375 145.957031 141.105469 146.054688 141.121094 C 147.910156 141.394531 149.347656 143.003906 149.347656 144.925781 C 149.347656 146.851562 147.910156 148.460938 146.054688 148.734375 C 145.957031 148.75 145.863281 148.757812 145.765625 148.765625 L 145.769531 148.777344 L 117.375 148.777344 C 115.253906 148.777344 113.515625 150.511719 113.515625 152.628906 C 113.515625 154.746094 115.253906 156.480469 117.375 156.480469 L 153.925781 156.480469 C 156.046875 156.480469 157.785156 158.214844 157.785156 160.332031 C 157.785156 160.738281 157.722656 161.128906 157.601562 161.5 C 157.578125 161.570312 157.554688 161.648438 157.523438 161.71875 L 157.519531 161.734375 L 157.511719 161.757812 L 157.476562 161.839844 L 157.449219 161.90625 L 157.445312 161.921875 L 157.410156 161.996094 L 157.371094 162.074219 L 157.355469 162.097656 L 157.328125 162.152344 L 157.320312 162.175781 L 157.277344 162.246094 L 157.269531 162.265625 L 157.222656 162.347656 L 157.191406 162.398438 L 157.179688 162.417969 L 157.132812 162.492188 L 157.125 162.5 L 157.082031 162.558594 L 157.019531 162.652344 L 156.972656 162.710938 L 156.964844 162.71875 L 156.914062 162.785156 L 156.902344 162.800781 L 156.859375 162.851562 L 156.839844 162.871094 L 156.796875 162.921875 L 156.785156 162.9375 L 156.710938 163.011719 L 156.667969 163.058594 L 156.605469 163.121094 L 156.589844 163.140625 L 156.527344 163.195312 L 156.515625 163.203125 L 156.464844 163.25 L 156.445312 163.265625 L 156.398438 163.304688 L 156.375 163.320312 L 156.316406 163.371094 L 156.3125 163.375 L 156.246094 163.421875 L 156.226562 163.4375 L 156.179688 163.472656 L 156.15625 163.484375 L 156.101562 163.527344 L 156.019531 163.582031 L 156 163.589844 L 155.945312 163.625 L 155.921875 163.640625 L 155.863281 163.671875 L 155.847656 163.679688 L 155.773438 163.722656 L 155.761719 163.730469 L 155.675781 163.773438 L 155.617188 163.800781 L 155.597656 163.8125 L 155.519531 163.847656 L 155.519531 163.851562 L 155.445312 163.882812 L 155.421875 163.894531 L 155.34375 163.925781 L 155.273438 163.953125 L 155.261719 163.957031 L 155.183594 163.984375 L 155.101562 164.011719 L 155.074219 164.019531 L 155.011719 164.039062 L 154.992188 164.042969 L 154.910156 164.066406 L 154.890625 164.066406 L 154.824219 164.085938 L 154.800781 164.089844 L 154.785156 164.09375 C 154.574219 164.136719 154.363281 164.167969 154.160156 164.179688 L 154.136719 164.179688 L 154.089844 164.183594 L 139.046875 164.183594 C 136.925781 164.183594 135.1875 165.917969 135.1875 168.035156 C 135.1875 170.152344 136.925781 171.886719 139.046875 171.886719 L 173.949219 171.886719 C 176.070312 171.886719 177.808594 173.617188 177.808594 175.734375 C 177.808594 177.320312 176.835938 178.6875 175.457031 179.277344 C 175.386719 179.304688 175.3125 179.332031 175.242188 179.359375 L 175.464844 179.585938 L 158.222656 179.585938 C 156.101562 179.585938 154.363281 181.316406 154.363281 183.433594 C 154.363281 185.554688 156.101562 187.285156 158.222656 187.285156 L 186.984375 187.285156 L 186.96875 187.285156 C 187.210938 187.296875 187.453125 187.304688 187.695312 187.296875 C 187.9375 187.300781 188.183594 187.292969 188.421875 187.285156 L 188.40625 187.285156 L 217.167969 187.285156 C 219.289062 187.285156 221.027344 185.554688 221.027344 183.433594 C 221.027344 181.316406 219.289062 179.585938 217.167969 179.585938 L 199.925781 179.585938 L 200.152344 179.359375 C 200.078125 179.332031 200.003906 179.304688 199.933594 179.277344 C 198.554688 178.6875 197.582031 177.320312 197.582031 175.734375 C 197.582031 173.617188 199.320312 171.886719 201.441406 171.886719 L 236.34375 171.886719 C 238.464844 171.886719 240.203125 170.152344 240.203125 168.035156 C 240.203125 165.917969 238.46875 164.183594 236.34375 164.183594 L 221.304688 164.183594 L 221.257812 164.179688 L 221.234375 164.179688 C 221.027344 164.167969 220.820312 164.140625 220.609375 164.09375 L 220.59375 164.089844 L 220.570312 164.085938 L 220.5 164.066406 L 220.484375 164.066406 L 220.402344 164.042969 L 220.382812 164.039062 L 220.320312 164.019531 L 220.292969 164.011719 L 220.128906 163.957031 L 220.121094 163.953125 L 220.050781 163.925781 L 220.027344 163.917969 L 219.96875 163.894531 L 219.945312 163.882812 L 219.871094 163.851562 L 219.871094 163.847656 L 219.792969 163.8125 L 219.773438 163.800781 L 219.714844 163.773438 L 219.628906 163.730469 L 219.617188 163.722656 L 219.542969 163.679688 L 219.527344 163.671875 L 219.46875 163.640625 L 219.445312 163.625 L 219.390625 163.589844 L 219.371094 163.582031 L 219.289062 163.527344 L 219.234375 163.484375 L 219.210938 163.472656 L 219.164062 163.4375 L 219.144531 163.421875 L 219.078125 163.375 L 219.074219 163.375 L 219.070312 163.371094 L 219.011719 163.320312 L 218.988281 163.304688 L 218.945312 163.265625 L 218.925781 163.25 L 218.871094 163.203125 L 218.863281 163.195312 L 218.800781 163.140625 L 218.785156 163.121094 L 218.722656 163.058594 L 218.679688 163.011719 L 218.664062 162.996094 L 218.609375 162.9375 L 218.59375 162.921875 L 218.550781 162.871094 L 218.53125 162.851562 L 218.488281 162.800781 L 218.476562 162.785156 L 218.425781 162.71875 L 218.417969 162.710938 L 218.371094 162.652344 L 218.308594 162.558594 L 218.265625 162.5 L 218.257812 162.492188 L 218.210938 162.417969 L 218.199219 162.398438 L 218.167969 162.347656 L 218.121094 162.265625 L 218.113281 162.246094 L 218.070312 162.175781 L 218.0625 162.152344 L 218.035156 162.097656 L 218.019531 162.074219 L 217.980469 161.996094 L 217.945312 161.921875 L 217.941406 161.90625 L 217.914062 161.839844 L 217.878906 161.757812 L 217.871094 161.734375 L 217.867188 161.71875 C 217.839844 161.644531 217.8125 161.570312 217.789062 161.5 C 217.671875 161.128906 217.605469 160.738281 217.605469 160.332031 C 217.605469 158.214844 219.34375 156.480469 221.464844 156.480469 L 258.015625 156.480469 C 260.140625 156.480469 261.878906 154.746094 261.878906 152.628906 C 261.878906 150.511719 260.140625 148.777344 258.015625 148.777344 L 229.625 148.777344 L 229.628906 148.765625 C 229.535156 148.757812 229.4375 148.75 229.34375 148.734375 C 227.488281 148.460938 226.050781 146.851562 226.050781 144.925781 C 226.050781 143.003906 227.488281 141.394531 229.34375 141.121094 C 229.4375 141.105469 229.535156 141.09375 229.628906 141.085938 L 229.625 141.078125 L 258.015625 141.078125 C 260.140625 141.078125 261.878906 139.34375 261.878906 137.226562 C 261.878906 135.109375 260.140625 133.375 258.015625 133.375 L 221.464844 133.375 C 219.34375 133.375 217.605469 131.640625 217.605469 129.523438 C 217.605469 129.117188 217.667969 128.722656 217.789062 128.355469 C 217.8125 128.28125 217.835938 128.207031 217.867188 128.136719 L 217.871094 128.121094 L 217.878906 128.101562 L 217.90625 128.039062 L 217.917969 128.019531 L 217.945312 127.953125 L 217.953125 127.941406 L 217.988281 127.867188 L 217.996094 127.847656 L 218.023438 127.789062 L 218.035156 127.765625 L 218.066406 127.707031 L 218.078125 127.6875 L 218.117188 127.613281 L 218.125 127.601562 L 218.160156 127.542969 L 218.175781 127.519531 L 218.210938 127.460938 L 218.222656 127.445312 L 218.269531 127.375 L 218.273438 127.371094 L 218.316406 127.308594 L 218.335938 127.285156 L 218.371094 127.238281 L 218.386719 127.21875 L 218.433594 127.15625 L 218.4375 127.152344 L 218.492188 127.082031 L 218.507812 127.070312 L 218.546875 127.019531 L 218.566406 127 L 218.609375 126.949219 L 218.621094 126.9375 L 218.679688 126.875 L 218.691406 126.859375 L 218.734375 126.8125 L 218.753906 126.792969 L 218.800781 126.75 L 218.816406 126.738281 L 218.878906 126.679688 L 218.886719 126.671875 L 218.941406 126.625 L 218.960938 126.605469 L 219.007812 126.566406 L 219.027344 126.550781 L 219.09375 126.496094 L 219.164062 126.445312 L 219.179688 126.433594 L 219.234375 126.394531 L 219.253906 126.378906 L 219.3125 126.335938 L 219.394531 126.28125 L 219.410156 126.273438 L 219.46875 126.234375 L 219.492188 126.222656 L 219.546875 126.1875 L 219.5625 126.179688 L 219.636719 126.136719 L 219.714844 126.097656 L 219.734375 126.085938 L 219.792969 126.058594 L 219.816406 126.046875 L 219.890625 126.011719 L 219.894531 126.011719 L 219.96875 125.976562 L 219.992188 125.964844 L 220.050781 125.941406 L 220.074219 125.933594 L 220.144531 125.90625 L 220.152344 125.902344 L 220.230469 125.875 L 220.3125 125.847656 L 220.339844 125.839844 L 220.402344 125.820312 L 220.421875 125.816406 L 220.507812 125.792969 L 220.523438 125.792969 L 220.59375 125.777344 L 220.617188 125.769531 L 220.679688 125.757812 L 220.703125 125.75 L 220.792969 125.734375 L 220.800781 125.734375 L 220.878906 125.722656 L 220.902344 125.71875 L 220.964844 125.710938 L 220.992188 125.707031 L 221.074219 125.699219 L 221.082031 125.699219 L 221.171875 125.691406 L 221.191406 125.6875 L 221.257812 125.683594 L 221.289062 125.679688 L 221.359375 125.675781 L 236.378906 125.675781 C 238.503906 125.675781 240.242188 123.945312 240.242188 121.828125 C 240.242188 119.707031 238.503906 117.976562 236.378906 117.976562 L 201.480469 117.976562 C 199.355469 117.976562 197.617188 116.242188 197.617188 114.125 C 197.617188 112.539062 198.589844 111.171875 199.96875 110.582031 C 200.042969 110.550781 200.113281 110.523438 200.1875 110.496094 L 200.242188 110.476562 L 200.25 110.476562 L 200.332031 110.449219 L 200.339844 110.449219 L 200.425781 110.421875 L 200.605469 110.375 L 200.695312 110.359375 L 200.699219 110.359375 C 200.792969 110.339844 200.886719 110.320312 200.984375 110.3125 C 201.015625 110.308594 201.046875 110.304688 201.078125 110.300781 L 201.082031 110.300781 C 201.144531 110.292969 201.210938 110.289062 201.273438 110.285156 L 201.277344 110.285156 C 201.308594 110.285156 201.34375 110.285156 201.371094 110.285156 L 217.195312 110.285156 C 219.316406 110.285156 221.054688 108.550781 221.054688 106.433594 C 221.054688 104.316406 219.316406 102.582031 217.195312 102.582031 L 188.4375 102.582031 C 188.199219 102.570312 187.964844 102.566406 187.726562 102.566406 C 187.488281 102.566406 187.253906 102.566406 187.015625 102.582031 L 158.257812 102.582031 C 156.132812 102.582031 154.394531 104.316406 154.394531 106.433594 C 154.394531 108.550781 156.132812 110.285156 158.257812 110.285156 L 174.078125 110.285156 C 174.113281 110.285156 174.144531 110.285156 174.175781 110.285156 C 174.242188 110.289062 174.304688 110.292969 174.367188 110.300781 L 174.371094 110.300781 C 174.402344 110.304688 174.433594 110.308594 174.46875 110.3125 C 174.5625 110.324219 174.65625 110.339844 174.75 110.359375 L 174.753906 110.359375 L 174.84375 110.375 L 175.023438 110.421875 L 175.113281 110.449219 L 175.117188 110.449219 L 175.203125 110.476562 L 175.207031 110.476562 L 175.265625 110.496094 C 175.339844 110.523438 175.410156 110.550781 175.480469 110.582031 C 176.859375 111.167969 177.835938 112.539062 177.835938 114.125 C 177.835938 116.242188 176.097656 117.976562 173.972656 117.976562 L 139.074219 117.976562 C 136.949219 117.976562 135.210938 119.707031 135.210938 121.828125 C 135.210938 123.945312 136.949219 125.675781 139.074219 125.675781 Z M 145.761719 148.777344 Z M 157.519531 161.714844 Z M 156.300781 163.355469 Z M 219.027344 163.355469 Z M 217.808594 161.714844 Z M 229.566406 148.777344 Z M 217.808594 128.140625 Z M 219.027344 126.5 Z M 200.113281 110.5 Z M 201.308594 110.277344 Z M 187.808594 117.121094 C 203.207031 117.121094 215.695312 129.570312 215.695312 144.925781 C 215.695312 160.277344 203.207031 172.730469 187.808594 172.730469 C 187.761719 172.730469 187.710938 172.730469 187.660156 172.730469 C 187.609375 172.730469 187.558594 172.730469 187.507812 172.730469 C 172.113281 172.730469 159.625 160.28125 159.625 144.925781 C 159.625 129.570312 172.109375 117.121094 187.507812 117.121094 C 187.558594 117.121094 187.609375 117.121094 187.660156 117.121094 C 187.710938 117.121094 187.761719 117.121094 187.808594 117.121094 Z M 187.808594 117.121094 " fill-opacity="1" fill-rule="evenodd"/></g><g fill="#4c3d3d" fill-opacity="1"><g transform="translate(120.857431, 245.271737)"><g><path d="M 8.703125 0 L 1.78125 0 L 1.78125 -28.484375 L 10.25 -28.484375 L 14.859375 -13.265625 L 19.484375 -28.484375 L 27.953125 -28.484375 L 27.953125 0 L 21.078125 0 L 21.078125 -18.109375 L 17.53125 -6.171875 L 12.203125 -6.171875 L 8.703125 -18.015625 Z M 8.703125 0 "/></g></g></g><g fill="#4c3d3d" fill-opacity="1"><g transform="translate(150.583217, 245.271737)"><g><path d="M 7.859375 -22.140625 L 13.484375 -22.140625 C 15.734375 -22.140625 17.347656 -21.664062 18.328125 -20.71875 C 19.304688 -19.769531 19.796875 -18.410156 19.796875 -16.640625 L 19.796875 -5.5 C 19.796875 -3.726562 19.304688 -2.367188 18.328125 -1.421875 C 17.347656 -0.472656 15.734375 0 13.484375 0 L 7.859375 0 C 5.609375 0 3.992188 -0.472656 3.015625 -1.421875 C 2.035156 -2.367188 1.546875 -3.726562 1.546875 -5.5 L 1.546875 -16.640625 C 1.546875 -18.410156 2.035156 -19.769531 3.015625 -20.71875 C 3.992188 -21.664062 5.609375 -22.140625 7.859375 -22.140625 Z M 12.375 -6.21875 L 12.375 -15.9375 C 12.375 -16.582031 12.003906 -16.90625 11.265625 -16.90625 L 10.078125 -16.90625 C 9.335938 -16.90625 8.96875 -16.582031 8.96875 -15.9375 L 8.96875 -6.21875 C 8.96875 -5.5625 9.335938 -5.234375 10.078125 -5.234375 L 11.265625 -5.234375 C 12.003906 -5.234375 12.375 -5.5625 12.375 -6.21875 Z M 12.375 -6.21875 "/></g></g></g><g fill="#4c3d3d" fill-opacity="1"><g transform="translate(171.923674, 245.271737)"><g><path d="M 13.21875 -22.140625 L 14.015625 -22.140625 C 17.953125 -22.140625 19.921875 -20.304688 19.921875 -16.640625 L 19.921875 0 L 12.375 0 L 12.375 -15.625 C 12.375 -16.269531 12.003906 -16.59375 11.265625 -16.59375 L 10.515625 -16.59375 C 9.710938 -16.59375 9.3125 -16.148438 9.3125 -15.265625 L 9.3125 0 L 1.78125 0 L 1.78125 -22.140625 L 9.1875 -22.140625 L 9.1875 -19.296875 C 9.601562 -21.191406 10.945312 -22.140625 13.21875 -22.140625 Z M 13.21875 -22.140625 "/></g></g></g><g fill="#4c3d3d" fill-opacity="1"><g transform="translate(193.397229, 245.271737)"><g><path d="M 1.640625 -24.359375 L 1.640625 -29.6875 L 9.453125 -29.6875 L 9.453125 -24.359375 Z M 9.3125 0 L 1.78125 0 L 1.78125 -22.140625 L 9.3125 -22.140625 Z M 9.3125 0 "/></g></g></g><g fill="#4c3d3d" fill-opacity="1"><g transform="translate(204.488939, 245.271737)"><g><path d="M 13 -16.59375 L 10.203125 -16.59375 L 10.203125 -6.515625 C 10.203125 -5.867188 10.570312 -5.546875 11.3125 -5.546875 L 12.953125 -5.546875 L 12.953125 0 L 9.1875 0 C 4.832031 0 2.65625 -1.832031 2.65625 -5.5 L 2.65625 -16.59375 L 0.21875 -16.59375 L 0.21875 -22.140625 L 2.65625 -22.140625 L 2.65625 -26.484375 L 10.203125 -26.484375 L 10.203125 -22.140625 L 13 -22.140625 Z M 13 -16.59375 "/></g></g></g><g fill="#4c3d3d" fill-opacity="1"><g transform="translate(217.932097, 245.271737)"><g><path d="M 7.859375 -22.140625 L 13.484375 -22.140625 C 15.734375 -22.140625 17.347656 -21.664062 18.328125 -20.71875 C 19.304688 -19.769531 19.796875 -18.410156 19.796875 -16.640625 L 19.796875 -5.5 C 19.796875 -3.726562 19.304688 -2.367188 18.328125 -1.421875 C 17.347656 -0.472656 15.734375 0 13.484375 0 L 7.859375 0 C 5.609375 0 3.992188 -0.472656 3.015625 -1.421875 C 2.035156 -2.367188 1.546875 -3.726562 1.546875 -5.5 L 1.546875 -16.640625 C 1.546875 -18.410156 2.035156 -19.769531 3.015625 -20.71875 C 3.992188 -21.664062 5.609375 -22.140625 7.859375 -22.140625 Z M 12.375 -6.21875 L 12.375 -15.9375 C 12.375 -16.582031 12.003906 -16.90625 11.265625 -16.90625 L 10.078125 -16.90625 C 9.335938 -16.90625 8.96875 -16.582031 8.96875 -15.9375 L 8.96875 -6.21875 C 8.96875 -5.5625 9.335938 -5.234375 10.078125 -5.234375 L 11.265625 -5.234375 C 12.003906 -5.234375 12.375 -5.5625 12.375 -6.21875 Z M 12.375 -6.21875 "/></g></g></g><g fill="#4c3d3d" fill-opacity="1"><g transform="translate(239.272554, 245.271737)"><g><path d="M 13.984375 -22.359375 L 14.640625 -22.359375 L 14.640625 -15.796875 L 12.109375 -15.796875 C 10.242188 -15.796875 9.3125 -14.789062 9.3125 -12.78125 L 9.3125 0 L 1.78125 0 L 1.78125 -22.140625 L 9.1875 -22.140625 L 9.1875 -18.71875 C 9.425781 -19.84375 9.957031 -20.726562 10.78125 -21.375 C 11.613281 -22.03125 12.679688 -22.359375 13.984375 -22.359375 Z M 13.984375 -22.359375 "/></g></g></g><g fill="#ffd831" fill-opacity="1"><g transform="translate(161.656979, 279.531133)"><g><path d="M 1.109375 -14.171875 L 7.609375 -14.171875 C 9.773438 -14.171875 10.859375 -13.257812 10.859375 -11.4375 L 10.859375 -2.734375 C 10.859375 -0.910156 9.773438 0 7.609375 0 L 1.109375 0 Z M 7 -3.03125 L 7 -11.15625 C 7 -11.476562 6.816406 -11.640625 6.453125 -11.640625 L 4.96875 -11.640625 L 4.96875 -2.53125 L 6.453125 -2.53125 C 6.816406 -2.53125 7 -2.695312 7 -3.03125 Z M 7 -3.03125 "/></g></g></g><g fill="#ffd831" fill-opacity="1"><g transform="translate(175.566937, 279.531133)"><g><path d="M 8.109375 0 L 7.65625 -2.125 L 4.265625 -2.125 L 3.796875 0 L 0 0 L 3.640625 -14.171875 L 8.34375 -14.171875 L 11.984375 0 Z M 4.859375 -4.859375 L 7.0625 -4.859375 L 5.984375 -9.953125 Z M 4.859375 -4.859375 "/></g></g></g><g fill="#ffd831" fill-opacity="1"><g transform="translate(189.785988, 279.531133)"><g><path d="M 9.421875 -14.171875 L 9.421875 -11.421875 L 6.6875 -11.421875 L 6.6875 0 L 2.828125 0 L 2.828125 -11.421875 L 0.109375 -11.421875 L 0.109375 -14.171875 Z M 9.421875 -14.171875 "/></g></g></g><g fill="#ffd831" fill-opacity="1"><g transform="translate(201.554367, 279.531133)"><g><path d="M 7.359375 -14.171875 L 10.890625 -14.171875 L 10.890625 0 L 7.578125 0 L 4.421875 -7.4375 L 4.421875 0 L 0.890625 0 L 0.890625 -14.171875 L 4.1875 -14.171875 L 7.359375 -6.59375 Z M 7.359375 -14.171875 "/></g></g></g></svg>